<svg width="117" height="28" viewBox="0 0 117 28" fill="none" xmlns="http://www.w3.org/2000/svg">
<path d="M2 14L1.21913 13.3753L0.719375 14L1.21913 14.6247L2 14ZM11 15C11.5523 15 12 14.5523 12 14C12 13.4477 11.5523 13 11 13V15ZM5.21913 8.3753L1.21913 13.3753L2.78087 14.6247L6.78087 9.6247L5.21913 8.3753ZM1.21913 14.6247L5.21913 19.6247L6.78087 18.3753L2.78087 13.3753L1.21913 14.6247ZM2 15H11V13H2V15Z" fill="#808080"/>
<path d="M10 10.1319V9.38851C10 7.77017 10 6.961 10.474 6.4015C10.9479 5.84201 11.7461 5.70899 13.3424 5.44293L15.0136 5.1644C18.2567 4.62388 19.8782 4.35363 20.9391 5.25232C22 6.15102 22 7.79493 22 11.0828V16.9172C22 20.2051 22 21.849 20.9391 22.7477C19.8782 23.6464 18.2567 23.3761 15.0136 22.8356L13.3424 22.5571C11.7461 22.291 10.9479 22.158 10.474 21.5985C10 21.039 10 20.2298 10 18.6115V18.066" stroke="#808080" stroke-width="2"/>
<path d="M37.8118 18.084C37.2278 18.084 36.6998 17.984 36.2278 17.784C35.7638 17.584 35.3958 17.296 35.1238 16.92C34.8518 16.544 34.7118 16.1 34.7038 15.588H36.5038C36.5278 15.932 36.6478 16.204 36.8638 16.404C37.0878 16.604 37.3918 16.704 37.7758 16.704C38.1678 16.704 38.4758 16.612 38.6998 16.428C38.9238 16.236 39.0358 15.988 39.0358 15.684C39.0358 15.436 38.9598 15.232 38.8078 15.072C38.6558 14.912 38.4638 14.788 38.2318 14.7C38.0078 14.604 37.6958 14.5 37.2958 14.388C36.7518 14.228 36.3078 14.072 35.9638 13.92C35.6278 13.76 35.3358 13.524 35.0878 13.212C34.8478 12.892 34.7278 12.468 34.7278 11.94C34.7278 11.444 34.8518 11.012 35.0998 10.644C35.3478 10.276 35.6958 9.996 36.1438 9.804C36.5918 9.604 37.1038 9.504 37.6798 9.504C38.5438 9.504 39.2438 9.716 39.7798 10.14C40.3238 10.556 40.6238 11.14 40.6798 11.892H38.8318C38.8158 11.604 38.6918 11.368 38.4598 11.184C38.2358 10.992 37.9358 10.896 37.5598 10.896C37.2318 10.896 36.9678 10.98 36.7678 11.148C36.5758 11.316 36.4798 11.56 36.4798 11.88C36.4798 12.104 36.5518 12.292 36.6958 12.444C36.8478 12.588 37.0318 12.708 37.2478 12.804C37.4718 12.892 37.7838 12.996 38.1838 13.116C38.7278 13.276 39.1718 13.436 39.5158 13.596C39.8598 13.756 40.1558 13.996 40.4038 14.316C40.6518 14.636 40.7758 15.056 40.7758 15.576C40.7758 16.024 40.6598 16.44 40.4278 16.824C40.1958 17.208 39.8558 17.516 39.4078 17.748C38.9598 17.972 38.4278 18.084 37.8118 18.084ZM43.0843 10.56C42.7883 10.56 42.5403 10.468 42.3403 10.284C42.1483 10.092 42.0523 9.856 42.0523 9.576C42.0523 9.296 42.1483 9.064 42.3403 8.88C42.5403 8.688 42.7883 8.592 43.0843 8.592C43.3803 8.592 43.6243 8.688 43.8163 8.88C44.0163 9.064 44.1163 9.296 44.1163 9.576C44.1163 9.856 44.0163 10.092 43.8163 10.284C43.6243 10.468 43.3803 10.56 43.0843 10.56ZM43.9123 11.352V18H42.2323V11.352H43.9123ZM48.1761 11.244C48.6721 11.244 49.1081 11.344 49.4841 11.544C49.8601 11.736 50.1561 11.988 50.3721 12.3V11.352H52.0641V18.048C52.0641 18.664 51.9401 19.212 51.6921 19.692C51.4441 20.18 51.0721 20.564 50.5761 20.844C50.0801 21.132 49.4801 21.276 48.7761 21.276C47.8321 21.276 47.0561 21.056 46.4481 20.616C45.8481 20.176 45.5081 19.576 45.4281 18.816H47.0961C47.1841 19.12 47.3721 19.36 47.6601 19.536C47.9561 19.72 48.3121 19.812 48.7281 19.812C49.2161 19.812 49.6121 19.664 49.9161 19.368C50.2201 19.08 50.3721 18.64 50.3721 18.048V17.016C50.1561 17.328 49.8561 17.588 49.4721 17.796C49.0961 18.004 48.6641 18.108 48.1761 18.108C47.6161 18.108 47.1041 17.964 46.6401 17.676C46.1761 17.388 45.8081 16.984 45.5361 16.464C45.2721 15.936 45.1401 15.332 45.1401 14.652C45.1401 13.98 45.2721 13.384 45.5361 12.864C45.8081 12.344 46.1721 11.944 46.6281 11.664C47.0921 11.384 47.6081 11.244 48.1761 11.244ZM50.3721 14.676C50.3721 14.268 50.2921 13.92 50.1321 13.632C49.9721 13.336 49.7561 13.112 49.4841 12.96C49.2121 12.8 48.9201 12.72 48.6081 12.72C48.2961 12.72 48.0081 12.796 47.7441 12.948C47.4801 13.1 47.2641 13.324 47.0961 13.62C46.9361 13.908 46.8561 14.252 46.8561 14.652C46.8561 15.052 46.9361 15.404 47.0961 15.708C47.2641 16.004 47.4801 16.232 47.7441 16.392C48.0161 16.552 48.3041 16.632 48.6081 16.632C48.9201 16.632 49.2121 16.556 49.4841 16.404C49.7561 16.244 49.9721 16.02 50.1321 15.732C50.2921 15.436 50.3721 15.084 50.3721 14.676ZM57.389 11.256C58.181 11.256 58.821 11.508 59.309 12.012C59.797 12.508 60.041 13.204 60.041 14.1V18H58.361V14.328C58.361 13.8 58.229 13.396 57.965 13.116C57.701 12.828 57.341 12.684 56.885 12.684C56.421 12.684 56.053 12.828 55.781 13.116C55.517 13.396 55.385 13.8 55.385 14.328V18H53.705V11.352H55.385V12.18C55.609 11.892 55.893 11.668 56.237 11.508C56.589 11.34 56.973 11.256 57.389 11.256ZM67.4499 18.108C66.8099 18.108 66.2339 17.968 65.7219 17.688C65.2099 17.4 64.8059 16.996 64.5099 16.476C64.2219 15.956 64.0779 15.356 64.0779 14.676C64.0779 13.996 64.2259 13.396 64.5219 12.876C64.8259 12.356 65.2379 11.956 65.7579 11.676C66.2779 11.388 66.8579 11.244 67.4979 11.244C68.1379 11.244 68.7179 11.388 69.2379 11.676C69.7579 11.956 70.1659 12.356 70.4619 12.876C70.7659 13.396 70.9179 13.996 70.9179 14.676C70.9179 15.356 70.7619 15.956 70.4499 16.476C70.1459 16.996 69.7299 17.4 69.2019 17.688C68.6819 17.968 68.0979 18.108 67.4499 18.108ZM67.4499 16.644C67.7539 16.644 68.0379 16.572 68.3019 16.428C68.5739 16.276 68.7899 16.052 68.9499 15.756C69.1099 15.46 69.1899 15.1 69.1899 14.676C69.1899 14.044 69.0219 13.56 68.6859 13.224C68.3579 12.88 67.9539 12.708 67.4739 12.708C66.9939 12.708 66.5899 12.88 66.2619 13.224C65.9419 13.56 65.7819 14.044 65.7819 14.676C65.7819 15.308 65.9379 15.796 66.2499 16.14C66.5699 16.476 66.9699 16.644 67.4499 16.644ZM78.4263 11.352V18H76.7343V17.16C76.5183 17.448 76.2343 17.676 75.8823 17.844C75.5383 18.004 75.1623 18.084 74.7543 18.084C74.2343 18.084 73.7743 17.976 73.3743 17.76C72.9743 17.536 72.6583 17.212 72.4263 16.788C72.2023 16.356 72.0903 15.844 72.0903 15.252V11.352H73.7703V15.012C73.7703 15.54 73.9023 15.948 74.1663 16.236C74.4303 16.516 74.7903 16.656 75.2463 16.656C75.7103 16.656 76.0743 16.516 76.3383 16.236C76.6023 15.948 76.7343 15.54 76.7343 15.012V11.352H78.4263ZM82.0399 12.732V15.948C82.0399 16.172 82.0919 16.336 82.1959 16.44C82.3079 16.536 82.4919 16.584 82.7479 16.584H83.5279V18H82.4719C81.0559 18 80.3479 17.312 80.3479 15.936V12.732H79.5559V11.352H80.3479V9.708H82.0399V11.352H83.5279V12.732H82.0399Z" fill="#808080"/>
</svg>
